<?xml version="1.0" encoding="iso-8859-1"?>
<!-- Generator: Adobe Illustrator 22.1.0, SVG Export Plug-In . SVG Version: 6.00 Build 0)  -->
<svg version="1.1" id="Calque_1" xmlns="http://www.w3.org/2000/svg" xmlns:xlink="http://www.w3.org/1999/xlink" x="0px" y="0px"
	 viewBox="0 0 1275 261" style="enable-background:new 0 0 1275 261;" xml:space="preserve">
<g id="Page-1_1_">
	<g id="Desktop-HD" transform="translate(-82.000000, -381.000000)">
		<g id="Page-1" transform="translate(81.000000, 381.000000)">
			<path id="Fill-1" style="fill:#9DAAB6;" d="M164.072,217.262c5.845,0,10.601,4.747,10.601,10.579
				c0,5.83-4.755,10.577-10.601,10.577c-5.843,0-10.598-4.747-10.598-10.577C153.474,222.009,158.229,217.262,164.072,217.262
				 M330.51,151.737c-5.845,0-10.601-4.747-10.601-10.579s4.755-10.579,10.601-10.579c5.84,0,10.595,4.747,10.595,10.579
				S336.35,151.737,330.51,151.737 M330.51,108.396c-18.096,0-32.822,14.7-32.822,32.762c0,3.52,0.586,7.021,1.741,10.425
				l-108.416,57.61c-6.16-8.859-16.144-14.114-26.941-14.114c-12.509,0-23.913,7.145-29.431,18.315l-97.402-51.259
				c-10.288-5.402-17.991-22.319-17.174-37.717c0.424-8.032,3.205-14.266,7.439-16.675c2.689-1.521,5.923-1.39,9.35,0.405
				l0.651,0.34c25.804,13.573,110.271,57.984,113.825,59.631c5.489,2.535,8.542,3.561,17.89-0.864l174.6-90.645
				c2.557-0.964,5.541-3.411,5.541-7.127c0-5.157-5.339-7.191-5.355-7.191c-9.926-4.752-25.195-11.887-40.08-18.843
				c-31.823-14.875-67.891-31.733-83.73-40.012c-13.674-7.145-24.683-1.122-26.646,0.095l-3.812,1.885
				C118.449,40.606,23.046,87.771,17.616,91.071c-9.728,5.907-15.751,17.675-16.531,32.287
				c-1.217,23.162,10.621,47.309,27.54,56.169l102.994,53.023c2.32,16.04,16.151,28.053,32.453,28.053
				c17.929,0,32.548-14.429,32.817-32.264l113.435-61.367c5.752,4.486,12.881,6.946,20.186,6.946
				c18.094,0,32.82-14.697,32.82-32.762C363.329,123.095,348.604,108.396,330.51,108.396"/>
			<path id="Fill-4" style="fill:#9DAAB6;" d="M579.647,195.851c-6.129,6.799-15.098,12.276-26.902,16.43
				c-11.804,4.154-24.745,6.232-38.82,6.232c-21.643,0-38.936-6.609-51.874-19.828c-12.941-13.22-19.866-31.614-20.772-55.184
				l-0.114-14.277c0-16.242,2.875-30.423,8.627-42.547c5.75-12.124,13.979-21.455,24.688-27.989
				c10.707-6.531,23.1-9.801,37.174-9.801c20.584,0,36.568,4.703,47.958,14.107c11.386,9.406,18.029,23.438,19.92,42.095h-38.365
				c-1.364-9.215-4.314-15.788-8.854-19.717c-4.541-3.927-10.973-5.892-19.298-5.892c-9.988,0-17.706,4.231-23.157,12.691
				c-5.448,8.46-8.209,20.548-8.286,36.26v9.971c0,16.468,2.818,28.837,8.457,37.109c5.636,8.272,14.511,12.407,26.618,12.407
				c10.368,0,18.086-2.305,23.157-6.913v-25.606h-27.695v-27.308h67.538V195.851z"/>
			<path id="Fill-6" style="fill:#9DAAB6;" d="M603.029,216.248h38.368V93.646h-38.368V216.248z M600.759,61.918
				c0-5.471,1.968-9.955,5.905-13.452c3.934-3.496,9.043-5.245,15.322-5.245c6.282,0,11.388,1.748,15.325,5.245
				c3.934,3.496,5.902,7.98,5.902,13.452c0,5.474-1.968,9.958-5.902,13.452c-3.937,3.496-9.043,5.245-15.325,5.245
				c-6.279,0-11.388-1.748-15.322-5.245C602.727,71.876,600.759,67.392,600.759,61.918L600.759,61.918z"/>
			<path id="Fill-8" style="fill:#9DAAB6;" d="M709.503,63.165v30.48h20.204v26.514h-20.204v56.089c0,4.61,0.832,7.82,2.498,9.633
				c1.663,1.813,4.957,2.718,9.875,2.718c3.784,0,6.961-0.224,9.534-0.678v27.308c-6.886,2.189-14.075,3.285-21.565,3.285
				c-13.168,0-22.891-3.097-29.172-9.29c-6.282-6.193-9.423-15.6-9.423-28.216v-60.848h-15.663V93.645h15.663v-30.48H709.503z"/>
			<path id="Fill-9" style="fill:#9DAAB6;" d="M786.35,146.108v39.545h26.106c7.191,0,12.714-1.642,16.573-4.93
				c3.862-3.285,5.791-7.913,5.791-13.88c0-13.748-6.85-20.661-20.545-20.736H786.35z M786.35,120.048h20.772
				c8.702-0.075,14.906-1.666,18.616-4.773c3.709-3.107,5.561-7.691,5.561-13.753c0-6.969-2.004-11.99-6.016-15.058
				c-4.009-3.068-10.479-4.603-19.409-4.603H786.35V120.048z M746.507,216.246V51.268h59.368c21.263,0,37.438,3.891,48.524,11.67
				c11.086,7.782,16.629,19.075,16.629,33.881c0,8.537-1.968,15.824-5.902,21.868c-3.934,6.044-9.725,10.502-17.368,13.372
				c8.627,2.266,15.25,6.498,19.866,12.691c4.616,6.193,6.925,13.748,6.925,22.662c0,16.164-5.13,28.309-15.384,36.428
				c-10.252,8.122-25.443,12.258-45.572,12.407H746.507z"/>
			<path id="Fill-10" style="fill:#9DAAB6;" d="M928.124,156.192c0,11.332,1.777,19.642,5.334,24.928
				c3.557,5.288,8.818,7.931,15.78,7.931c13.62,0,20.584-10.461,20.886-31.387v-3.852c0-21.981-7.039-32.973-21.113-32.973
				c-12.788,0-19.713,9.481-20.772,28.44L928.124,156.192z M889.87,153.812c0-12.237,2.384-23.134,7.152-32.689
				c4.768-9.556,11.616-16.902,20.545-22.038c8.929-5.139,19.411-7.707,31.443-7.707c18.388,0,32.879,5.685,43.474,17.054
				c10.595,11.371,15.891,26.836,15.891,46.401v1.359c0,19.111-5.316,34.275-15.945,45.494
				c-10.637,11.219-25.032,16.827-43.193,16.827c-17.482,0-31.518-5.229-42.113-15.695c-10.593-10.461-16.306-24.645-17.141-42.547
				L889.87,153.812z"/>
			<path id="Fill-11" style="fill:#9DAAB6;" d="M1058.661,156.192c0,11.332,1.777,19.642,5.334,24.928
				c3.557,5.288,8.818,7.931,15.779,7.931c13.62,0,20.584-10.461,20.886-31.387v-3.852c0-21.981-7.039-32.973-21.113-32.973
				c-12.788,0-19.713,9.481-20.772,28.44L1058.661,156.192z M1020.407,153.812c0-12.237,2.384-23.134,7.152-32.689
				c4.768-9.556,11.616-16.902,20.545-22.038c8.929-5.139,19.411-7.707,31.443-7.707c18.388,0,32.879,5.685,43.474,17.054
				c10.595,11.371,15.891,26.836,15.891,46.401v1.359c0,19.111-5.316,34.275-15.945,45.494
				c-10.637,11.219-25.032,16.827-43.193,16.827c-17.482,0-31.518-5.229-42.113-15.695c-10.593-10.461-16.306-24.645-17.141-42.547
				L1020.407,153.812z"/>
			<polygon id="Fill-12" style="fill:#9DAAB6;" points="1205.09,170.583 1194.306,181.348 1194.306,216.247 1156.054,216.247 
				1156.054,42.089 1194.306,42.089 1194.306,134.549 1198.165,129.452 1226.996,93.645 1272.855,93.645 1229.835,144.069 
				1275.693,216.247 1231.878,216.247 			"/>
		</g>
	</g>
</g>
</svg>
